PathFileType	3	(X/Y/Z)	D:\Jess\Healthy\Labelled\HA07\20250404\SRRun01.trc
DataRate	CameraRate	NumFrames	NumMarkers	Units	OrigDataRate	OrigDataStartFrame	OrigNumFrames
250.0	250.0	4	33	mm	250.0	36250	2501
Frame#	Time	C7			T10			CLAV			LSHO			RSHO			LASIS			RASIS			LPSIS			RPSIS			LILCR			RILCR			LGTR			LTHI			LLTHI			LLEP			LPSH			LLSH			LDSH			LLMAL			LTOE			L5TH			LHEE			RGTR			RTHI			RLTHI			RLEP			RPSH			RLSH			RDSH			RLMAL			RTOE			R5TH			RHEE			
		X1	Y1	Z1	X2	Y2	Z2	X3	Y3	Z3	X4	Y4	Z4	X5	Y5	Z5	X6	Y6	Z6	X7	Y7	Z7	X8	Y8	Z8	X9	Y9	Z9	X10	Y10	Z10	X11	Y11	Z11	X12	Y12	Z12	X13	Y13	Z13	X14	Y14	Z14	X15	Y15	Z15	X16	Y16	Z16	X17	Y17	Z17	X18	Y18	Z18	X19	Y19	Z19	X20	Y20	Z20	X21	Y21	Z21	X22	Y22	Z22	X23	Y23	Z23	X24	Y24	Z24	X25	Y25	Z25	X26	Y26	Z26	X27	Y27	Z27	X28	Y28	Z28	X29	Y29	Z29	X30	Y30	Z30	X31	Y31	Z31	X32	Y32	Z32	X33	Y33	Z33	

1251	144.996	1091.240658005555	1366.083157719485	-306.1392282711611	1022.02155951158	1157.204699585122	-322.4928961109727	1213.758463951596	1283.413673657115	-271.0241073619099	1173.892825624033	1353.872728108614	-437.8337620631666	1105.162125405946	1347.894139491915	-149.4466992616789	1204.206170304495	912.9234722184901	-399.5579639678968	1159.791837867162	937.5811887938872	-178.3388153776865	1020.097261712019	966.6389674760978	-330.2608947707253	1012.217123474159	965.7290959240236	-288.8791045001543	1155.518542396847	944.0179338843952	-454.1855921976384	1090.634705607157	964.5709325367167	-150.2092994328981	1131.83555862085	833.4399950396606	-472.5526775509595	1206.725119005414	684.0489603787753	-378.4541015409879	1100.742884413274	599.9005860155689	-434.2434638048111	1054.828564898668	453.7042340137831	-406.4229236519565	1016.335354398276	369.1426159810213	-356.6607925321354	883.0414466360639	405.567371554542	-418.6607863126061	812.4368264256302	315.1225579200228	-349.7058768589858	702.2733686921204	313.7332206351176	-385.4760390373426	684.3047798472603	189.5520047735178	-347.0359410460319	652.2044201984987	212.5960701180912	-388.3533192795605	666.0847028620839	392.6212489137666	-356.702317274443	1105.209662197357	859.0018846870964	-127.6492411853646	1252.195588628332	758.3392954193743	-192.2640623091906	1203.734308189254	632.2008202631583	-143.9430495164616	1259.216384921559	471.9812878533324	-175.2558091336058	1311.4869207311	399.9505288210157	-233.5258003914029	1232.613464305337	296.6130232522079	-174.7259278964571	1286.725726857119	192.6556474477626	-249.8950308291651	1244.874994267588	99.46869939076535	-225.9605852126512	1368.355857757831	72.93675075972988	-249.7379358303915	1338.254528984301	41.3871500006296	-207.5776718688816	1166.733992404487	71.34663819504485	-267.1534083118986	
1252	145	1090.925533911808	1362.743607028745	-305.3640436043946	1021.377742602472	1153.890609757678	-321.8805502834177	1213.668746840561	1279.770911045564	-271.1207346934358	1173.022121336782	1350.332645465548	-438.0074683343155	1105.595060945501	1344.622646535928	-148.7300506839634	1203.935227211045	909.3704702279485	-399.3409552628847	1159.152477044883	934.4923082163854	-177.6017066309081	1019.5768400987	962.6426123310438	-330.6960440945665	1011.625028904283	961.9068963207818	-289.3387179500673	1155.184996998204	939.8927696743382	-454.4134728132365	1089.453220109785	961.0298075452392	-149.9988046294493	1132.520668076158	829.107177336546	-472.252133361157	1208.628109278724	681.3360045869844	-378.8295705081688	1104.022986417372	595.7490704536203	-434.8415233279093	1060.924949441418	449.7371848223542	-407.6931467459519	1022.006444881229	365.9401134539715	-357.9447552671985	889.1674555902543	405.0409122160872	-419.5205814349202	817.1330933205851	316.151025835176	-350.7719658618543	706.8900849879489	317.4171364126692	-386.2762933083187	687.4237140386632	193.1655408479498	-349.3197145494467	655.4744807668008	217.1375831146216	-390.1402692309761	671.9083578550812	396.5055262793227	-356.4330409998462	1104.293406976507	855.7194427797554	-127.6209137659626	1252.433007935764	755.5415092301464	-190.9947759817998	1203.045625109509	629.2638078711508	-144.1820967011109	1258.907098228795	469.0901554577644	-175.3382432943481	1309.935320380781	396.5634715298204	-234.0489670244953	1229.183606462396	294.5009695993592	-175.532114938363	1280.012525238809	189.8822240726811	-251.44798920667	1235.332499049347	98.73974141574006	-227.3478143421637	1358.632631612819	70.65526215286621	-250.7507970194204	1327.825105072044	40.30947797350974	-207.8979086232348	1156.700304220378	71.67989903028649	-268.3285120054539	
1253	145.004	1090.584875601352	1359.403171766633	-304.5494837991761	1020.701886580204	1150.60552380183	-321.2466977657919	1213.581878674169	1276.12355612744	-271.2252185066231	1172.094172550852	1346.787284793238	-438.2126250923998	1106.040751372609	1341.344553699948	-147.9805721806187	1203.571751621691	905.7819884186983	-399.1454834821441	1158.541557324641	931.3838603266611	-176.8738264305037	1018.993832284668	958.7721628281504	-331.0887647990145	1010.992630049483	958.2215896855656	-289.7527960082013	1154.745215252355	935.761720690332	-454.6580934235621	1088.339132871922	957.5500378935443	-149.7721849976119	1133.089591455803	824.8244044520034	-471.9421963849964	1210.49853454211	678.6937938620405	-379.2559681382504	1107.277772019874	591.6935511129597	-435.4874460784282	1067.141318471478	445.8616606807393	-409.0236263424198	1027.896298908608	362.828313073599	-359.2386684160417	895.5167515471306	404.4316697345787	-420.379019771991	822.1889653151911	317.0419355878764	-351.8525904413495	711.9059269900904	320.9048449231367	-387.0627338054728	691.0768464432294	196.5369030063188	-351.8012411978078	659.2808480864384	221.4814533879531	-392.0821956538005	678.0548208826918	400.0854235038548	-356.004175153888	1103.397849179263	852.4984181349057	-127.5809509832625	1252.483403419871	752.5414369014155	-189.8658419034185	1202.276353866492	626.258370943783	-144.3341423843607	1258.563670029052	466.2180370014455	-175.4383406835435	1308.20463901157	393.2612686464909	-234.7059104050943	1225.757175428064	292.5371114114186	-176.2815038191233	1273.122255211756	187.3261991319832	-252.9970161690618	1225.656054977745	98.23607023887206	-228.6410918363069	1348.740529902677	68.7483031297397	-251.703456919514	1317.314759652626	39.54620298080471	-208.1870125723702	1146.56752319159	72.09555842235609	-269.382115125478	
1254	145.008	1090.229846521565	1356.089448245993	-303.6995025831463	1019.996119159297	1147.386795099954	-320.590734784702	1213.500053756708	1272.495904386126	-271.338992485574	1171.117702955487	1343.263934051211	-438.4449083359099	1106.508427921102	1338.082262961184	-147.2032619065467	1203.108834264291	902.1996426246168	-398.9750659010405	1157.957222193113	928.2895848412975	-176.1661463575122	1018.344346997096	955.066298253868	-331.4301474892669	1010.318144063424	954.7097006036468	-290.1122227262669	1154.188199411668	931.6719399924818	-454.9163711632264	1087.296583528749	954.1692264043768	-149.5319564904849	1133.528153559427	820.6373692947515	-471.6250500672959	1212.343936325245	676.1597563659291	-379.7195748641048	1110.519543650599	587.7687729258179	-436.1751851997831	1073.484581835836	442.1064180081231	-410.3974480366809	1034.007637595261	359.8283967406654	-360.524852144763	902.0869347181897	403.7480074308976	-421.2327824823045	827.5944413547987	317.7918600285946	-352.9386911733802	717.3078992713121	324.1711559703555	-387.8350181311896	695.2652872172972	199.6453777060948	-354.4525629222434	663.6273669252919	225.5907187443009	-394.1634023703377	684.4900177619617	403.3377594825342	-355.4411404179429	1102.523584857966	849.3757997138223	-127.5280774223539	1252.334830818601	749.3962362562274	-188.9019093086312	1201.42917100649	623.2281287282314	-144.4071978206039	1258.15311423562	463.3912206603707	-175.5572255687265	1306.272616885658	390.0590499689501	-235.4778791461337	1222.297285515735	290.7298285112577	-176.9665062571134	1266.060417539158	184.9962907475742	-254.5148678423526	1215.870116043292	97.9398238625939	-229.8258261081264	1338.705084765304	67.19686852747419	-252.5820877016764	1306.74869842155	39.06236006857003	-208.4448762211005	1136.360374932425	72.58140783089343	-270.3148662751682	
